<svg width="192" height="192" viewBox="0 0 192 192" fill="none" xmlns="http://www.w3.org/2000/svg">
<rect x="9" y="8" width="82.0388" height="83.0097" rx="10" fill="url(#paint0_linear_203_18)"/>
<path d="M54.695 24.664C54.695 23.4257 54.2088 22.238 53.3434 21.3624C52.478 20.4867 51.3042 19.9948 50.0803 19.9948C48.8565 19.9948 47.6827 20.4867 46.8173 21.3624C45.9518 22.238 45.4657 23.4257 45.4657 24.664V44.8977H25.4687C24.2448 44.8977 23.071 45.3896 22.2056 46.2653C21.3402 47.1409 20.854 48.3286 20.854 49.567C20.854 50.8053 21.3402 51.993 22.2056 52.8687C23.071 53.7443 24.2448 54.2363 25.4687 54.2363H45.4657V74.4699C45.4657 75.7083 45.9518 76.8959 46.8173 77.7716C47.6827 78.6472 48.8565 79.1392 50.0803 79.1392C51.3042 79.1392 52.478 78.6472 53.3434 77.7716C54.2088 76.8959 54.695 75.7083 54.695 74.4699V54.2363H74.692C75.9159 54.2363 77.0897 53.7443 77.9551 52.8687C78.8205 51.993 79.3067 50.8053 79.3067 49.567C79.3067 48.3286 78.8205 47.1409 77.9551 46.2653C77.0897 45.3896 75.9159 44.8977 74.692 44.8977H54.695V24.664Z" fill="#CBCDF1"/>
<rect x="9" y="101.01" width="82.0388" height="83.0097" rx="10" fill="url(#paint1_linear_203_18)"/>
<path d="M35.6185 120.755C34.6742 119.805 33.3972 119.273 32.0662 119.273C30.7352 119.273 29.4582 119.805 28.5139 120.755C27.5757 121.713 27.0493 123.008 27.0493 124.357C27.0493 125.706 27.5757 127.001 28.5139 127.96L42.8658 142.476L28.5303 156.995C27.5923 157.95 27.0658 159.242 27.0658 160.589C27.0658 161.936 27.5923 163.228 28.5303 164.184C29.4746 165.133 30.7516 165.665 32.0826 165.665C33.4136 165.665 34.6906 165.133 35.6349 164.184L49.9753 149.667L64.3156 164.169C65.2599 165.118 66.5369 165.65 67.8679 165.65C69.1989 165.65 70.4759 165.118 71.4202 164.169C72.3582 163.213 72.8847 161.921 72.8847 160.574C72.8847 159.227 72.3582 157.935 71.4202 156.98L57.0831 142.472L71.435 127.941C72.373 126.986 72.8995 125.694 72.8995 124.347C72.8995 123 72.373 121.708 71.435 120.753C69.466 118.777 66.2665 118.777 64.314 120.753L49.9736 135.28L35.6168 120.753L35.6185 120.755Z" fill="#CBCDF1"/>
<rect x="101.039" y="8" width="82.0388" height="83.0097" rx="10" fill="url(#paint2_linear_203_18)"/>
<path d="M162.055 44.8354H122.061C119.512 44.8354 117.446 46.926 117.446 49.5047C117.446 52.0835 119.512 54.174 122.061 54.174H162.055C164.604 54.174 166.67 52.0835 166.67 49.5047C166.67 46.926 164.604 44.8354 162.055 44.8354Z" fill="#CBCDF1"/>
<rect x="101.039" y="101.01" width="82.0388" height="83.0097" rx="10" fill="url(#paint3_linear_203_18)"/>
<path d="M124.114 127.573C121.354 127.573 119.088 129.803 119.088 132.553C119.088 135.288 121.354 137.534 124.114 137.534H160.004C162.762 137.534 165.03 135.304 165.03 132.553C165.03 129.819 162.778 127.573 160.004 127.573H124.114ZM124.114 147.495C121.354 147.495 119.088 149.725 119.088 152.476C119.088 155.21 121.354 157.456 124.114 157.456H160.004C162.762 157.456 165.03 155.227 165.03 152.476C165.03 149.741 162.778 147.495 160.004 147.495H124.114Z" fill="#CBCDF1"/>
<defs>
<linearGradient id="paint0_linear_203_18" x1="50.0194" y1="8" x2="50.0194" y2="91.0097" gradientUnits="userSpaceOnUse">
<stop stop-color="#8389FF"/>
<stop offset="1" stop-color="#5A61D9"/>
</linearGradient>
<linearGradient id="paint1_linear_203_18" x1="50.0194" y1="101.01" x2="50.0194" y2="184.019" gradientUnits="userSpaceOnUse">
<stop stop-color="#5A61D9"/>
<stop offset="1" stop-color="#4E54C8"/>
</linearGradient>
<linearGradient id="paint2_linear_203_18" x1="142.058" y1="8" x2="142.058" y2="91.0097" gradientUnits="userSpaceOnUse">
<stop stop-color="#8389FF"/>
<stop offset="1" stop-color="#5A61D9"/>
</linearGradient>
<linearGradient id="paint3_linear_203_18" x1="142.058" y1="101.01" x2="142.058" y2="184.019" gradientUnits="userSpaceOnUse">
<stop stop-color="#5A61D9"/>
<stop offset="1" stop-color="#4E54C8"/>
</linearGradient>
</defs>
</svg>
